<mxfile host="app.diagrams.net" agent="Mozilla/5.0 (Macintosh; Intel Mac OS X 10_15_7) AppleWebKit/537.36 (KHTML, like Gecko) Chrome/135.0.0.0 Safari/537.36" version="26.2.13">
  <diagram name="Page-1" id="wYmiO-0O9zoVkHl1V2zz">
    <mxGraphModel dx="1020" dy="586" grid="1" gridSize="10" guides="1" tooltips="1" connect="1" arrows="1" fold="1" page="1" pageScale="1" pageWidth="827" pageHeight="1169" math="0" shadow="0">
      <root>
        <mxCell id="0" />
        <mxCell id="1" parent="0" />
        <mxCell id="4XVxeDdmZDK3728lCoa0-19" value="" style="rounded=0;whiteSpace=wrap;html=1;direction=south;" vertex="1" parent="1">
          <mxGeometry x="260" y="70" width="490" height="420" as="geometry" />
        </mxCell>
        <mxCell id="4XVxeDdmZDK3728lCoa0-1" value="User" style="shape=umlActor;verticalLabelPosition=bottom;verticalAlign=top;html=1;outlineConnect=0;" vertex="1" parent="1">
          <mxGeometry x="140" y="120" width="30" height="60" as="geometry" />
        </mxCell>
        <mxCell id="4XVxeDdmZDK3728lCoa0-5" value="JobSphere.ai Chatbot Interface" style="text;html=1;align=center;verticalAlign=middle;whiteSpace=wrap;rounded=0;fontSize=17;" vertex="1" parent="1">
          <mxGeometry x="345" y="20" width="180" height="30" as="geometry" />
        </mxCell>
        <mxCell id="4XVxeDdmZDK3728lCoa0-6" style="edgeStyle=orthogonalEdgeStyle;rounded=0;orthogonalLoop=1;jettySize=auto;html=1;entryX=0.171;entryY=1;entryDx=0;entryDy=0;entryPerimeter=0;" edge="1" parent="1" source="4XVxeDdmZDK3728lCoa0-1">
          <mxGeometry relative="1" as="geometry">
            <mxPoint x="260" y="150.1099999999999" as="targetPoint" />
          </mxGeometry>
        </mxCell>
        <mxCell id="4XVxeDdmZDK3728lCoa0-7" value="Step 1" style="text;html=1;align=center;verticalAlign=middle;whiteSpace=wrap;rounded=0;" vertex="1" parent="1">
          <mxGeometry x="280" y="90" width="60" height="30" as="geometry" />
        </mxCell>
        <mxCell id="4XVxeDdmZDK3728lCoa0-20" style="edgeStyle=orthogonalEdgeStyle;rounded=0;orthogonalLoop=1;jettySize=auto;html=1;exitX=1;exitY=0.5;exitDx=0;exitDy=0;entryX=0;entryY=0.5;entryDx=0;entryDy=0;" edge="1" parent="1" source="4XVxeDdmZDK3728lCoa0-8" target="4XVxeDdmZDK3728lCoa0-18">
          <mxGeometry relative="1" as="geometry" />
        </mxCell>
        <mxCell id="4XVxeDdmZDK3728lCoa0-8" value="User Inputs Preferences" style="ellipse;whiteSpace=wrap;html=1;aspect=fixed;" vertex="1" parent="1">
          <mxGeometry x="270" y="127" width="80" height="80" as="geometry" />
        </mxCell>
        <mxCell id="4XVxeDdmZDK3728lCoa0-10" value="Preferences" style="swimlane;fontStyle=0;childLayout=stackLayout;horizontal=1;startSize=30;horizontalStack=0;resizeParent=1;resizeParentMax=0;resizeLast=0;collapsible=1;marginBottom=0;whiteSpace=wrap;html=1;" vertex="1" parent="1">
          <mxGeometry x="70" y="320" width="150" height="210" as="geometry" />
        </mxCell>
        <mxCell id="4XVxeDdmZDK3728lCoa0-11" value="Skills" style="text;strokeColor=none;fillColor=none;align=left;verticalAlign=middle;spacingLeft=4;spacingRight=4;overflow=hidden;points=[[0,0.5],[1,0.5]];portConstraint=eastwest;rotatable=0;whiteSpace=wrap;html=1;" vertex="1" parent="4XVxeDdmZDK3728lCoa0-10">
          <mxGeometry y="30" width="150" height="30" as="geometry" />
        </mxCell>
        <mxCell id="4XVxeDdmZDK3728lCoa0-12" value="Experience" style="text;strokeColor=none;fillColor=none;align=left;verticalAlign=middle;spacingLeft=4;spacingRight=4;overflow=hidden;points=[[0,0.5],[1,0.5]];portConstraint=eastwest;rotatable=0;whiteSpace=wrap;html=1;" vertex="1" parent="4XVxeDdmZDK3728lCoa0-10">
          <mxGeometry y="60" width="150" height="30" as="geometry" />
        </mxCell>
        <mxCell id="4XVxeDdmZDK3728lCoa0-13" value="Company Size &amp;amp; Age" style="text;strokeColor=none;fillColor=none;align=left;verticalAlign=middle;spacingLeft=4;spacingRight=4;overflow=hidden;points=[[0,0.5],[1,0.5]];portConstraint=eastwest;rotatable=0;whiteSpace=wrap;html=1;" vertex="1" parent="4XVxeDdmZDK3728lCoa0-10">
          <mxGeometry y="90" width="150" height="30" as="geometry" />
        </mxCell>
        <mxCell id="4XVxeDdmZDK3728lCoa0-15" value="Salary Expectations" style="text;strokeColor=none;fillColor=none;align=left;verticalAlign=middle;spacingLeft=4;spacingRight=4;overflow=hidden;points=[[0,0.5],[1,0.5]];portConstraint=eastwest;rotatable=0;whiteSpace=wrap;html=1;" vertex="1" parent="4XVxeDdmZDK3728lCoa0-10">
          <mxGeometry y="120" width="150" height="30" as="geometry" />
        </mxCell>
        <mxCell id="4XVxeDdmZDK3728lCoa0-16" value="Description: What types of companies you want" style="text;strokeColor=none;fillColor=none;align=left;verticalAlign=middle;spacingLeft=4;spacingRight=4;overflow=hidden;points=[[0,0.5],[1,0.5]];portConstraint=eastwest;rotatable=0;whiteSpace=wrap;html=1;" vertex="1" parent="4XVxeDdmZDK3728lCoa0-10">
          <mxGeometry y="150" width="150" height="30" as="geometry" />
        </mxCell>
        <mxCell id="4XVxeDdmZDK3728lCoa0-17" value="Role" style="text;strokeColor=none;fillColor=none;align=left;verticalAlign=middle;spacingLeft=4;spacingRight=4;overflow=hidden;points=[[0,0.5],[1,0.5]];portConstraint=eastwest;rotatable=0;whiteSpace=wrap;html=1;" vertex="1" parent="4XVxeDdmZDK3728lCoa0-10">
          <mxGeometry y="180" width="150" height="30" as="geometry" />
        </mxCell>
        <mxCell id="4XVxeDdmZDK3728lCoa0-25" style="edgeStyle=orthogonalEdgeStyle;rounded=0;orthogonalLoop=1;jettySize=auto;html=1;entryX=0;entryY=0.5;entryDx=0;entryDy=0;" edge="1" parent="1" source="4XVxeDdmZDK3728lCoa0-18" target="4XVxeDdmZDK3728lCoa0-24">
          <mxGeometry relative="1" as="geometry" />
        </mxCell>
        <mxCell id="4XVxeDdmZDK3728lCoa0-18" value="LLM parses input and generates structured json according to user preferences" style="ellipse;whiteSpace=wrap;html=1;aspect=fixed;" vertex="1" parent="1">
          <mxGeometry x="390" y="91.5" width="151" height="151" as="geometry" />
        </mxCell>
        <mxCell id="4XVxeDdmZDK3728lCoa0-23" value="Step 2" style="text;html=1;align=center;verticalAlign=middle;whiteSpace=wrap;rounded=0;" vertex="1" parent="1">
          <mxGeometry x="435.5" y="61.5" width="60" height="30" as="geometry" />
        </mxCell>
        <mxCell id="4XVxeDdmZDK3728lCoa0-29" style="edgeStyle=orthogonalEdgeStyle;rounded=0;orthogonalLoop=1;jettySize=auto;html=1;entryX=0.5;entryY=0;entryDx=0;entryDy=0;" edge="1" parent="1" source="4XVxeDdmZDK3728lCoa0-24" target="4XVxeDdmZDK3728lCoa0-28">
          <mxGeometry relative="1" as="geometry" />
        </mxCell>
        <mxCell id="4XVxeDdmZDK3728lCoa0-24" value="Searches through different APIs and gets list of jobs" style="ellipse;whiteSpace=wrap;html=1;aspect=fixed;" vertex="1" parent="1">
          <mxGeometry x="630" y="109.75" width="114.5" height="114.5" as="geometry" />
        </mxCell>
        <mxCell id="4XVxeDdmZDK3728lCoa0-26" value="calls JobAPI tool" style="text;html=1;align=center;verticalAlign=middle;whiteSpace=wrap;rounded=0;" vertex="1" parent="1">
          <mxGeometry x="560" y="127" width="60" height="30" as="geometry" />
        </mxCell>
        <mxCell id="4XVxeDdmZDK3728lCoa0-31" style="edgeStyle=orthogonalEdgeStyle;rounded=0;orthogonalLoop=1;jettySize=auto;html=1;entryX=1;entryY=0.5;entryDx=0;entryDy=0;" edge="1" parent="1" source="4XVxeDdmZDK3728lCoa0-28" target="4XVxeDdmZDK3728lCoa0-30">
          <mxGeometry relative="1" as="geometry" />
        </mxCell>
        <mxCell id="4XVxeDdmZDK3728lCoa0-28" value="Generates Raw Job Data" style="ellipse;whiteSpace=wrap;html=1;aspect=fixed;" vertex="1" parent="1">
          <mxGeometry x="647.25" y="295" width="80" height="80" as="geometry" />
        </mxCell>
        <mxCell id="4XVxeDdmZDK3728lCoa0-33" style="edgeStyle=orthogonalEdgeStyle;rounded=0;orthogonalLoop=1;jettySize=auto;html=1;" edge="1" parent="1" source="4XVxeDdmZDK3728lCoa0-30" target="4XVxeDdmZDK3728lCoa0-32">
          <mxGeometry relative="1" as="geometry" />
        </mxCell>
        <mxCell id="4XVxeDdmZDK3728lCoa0-30" value="LLM structures and ranks the jobs&amp;nbsp;" style="ellipse;whiteSpace=wrap;html=1;aspect=fixed;" vertex="1" parent="1">
          <mxGeometry x="463" y="295" width="79" height="80" as="geometry" />
        </mxCell>
        <mxCell id="4XVxeDdmZDK3728lCoa0-32" value="Final output with applying links" style="ellipse;whiteSpace=wrap;html=1;aspect=fixed;" vertex="1" parent="1">
          <mxGeometry x="289.5" y="295" width="79" height="80" as="geometry" />
        </mxCell>
      </root>
    </mxGraphModel>
  </diagram>
</mxfile>
